<?xml version="1.0" encoding="utf-8"?>
<!-- Generator: Adobe Illustrator 23.0.5, SVG Export Plug-In . SVG Version: 6.00 Build 0)  -->
<svg version="1.1" id="Layer_1" xmlns="http://www.w3.org/2000/svg" xmlns:xlink="http://www.w3.org/1999/xlink" x="0px" y="0px"
	 viewBox="0 0 800 800" style="enable-background:new 0 0 800 800;" xml:space="preserve">
<style type="text/css">
	.st0{fill:#090E1E;}
	.st1{fill:#F7F7F7;}
</style>
<circle class="st0" cx="400" cy="394.84" r="331.16"/>
<g>
	<path class="st1" d="M516.36,297.75c0,15.28-1.89,29.65-5.68,43.09c-3.79,13.45-9.5,25.56-17.14,36.34
		c-7.64,10.77-17.17,20.08-28.6,27.91c-11.43,7.84-24.78,13.91-40.06,18.22c-8.75,2.48-18.22,4.21-28.4,5.19
		c-10.19,0.98-21.22,1.47-33.1,1.47h-59.35v-262.1h59.94c11.88,0,22.92,0.49,33.1,1.47s19.65,2.71,28.4,5.19
		c15.28,4.31,28.63,10.32,40.06,18.02c11.43,7.71,20.89,16.82,28.4,27.33c7.51,10.51,13.12,22.33,16.85,35.46
		C514.5,268.47,516.36,282.6,516.36,297.75z M484.63,297.75c0-25.2-5.56-45.64-16.68-61.31c-11.12-15.67-27.06-26.77-47.84-33.3
		c-7.94-2.48-16.81-4.18-26.6-5.09c-9.79-0.91-20.84-1.37-33.15-1.37h-24.42v204.51h24.42c12.31,0,23.36-0.46,33.15-1.37
		c9.79-0.91,18.66-2.61,26.6-5.09c20.78-6.53,36.72-17.95,47.84-34.28C479.07,344.11,484.63,323.22,484.63,297.75z"/>
</g>
<g>
	<path class="st1" d="M382.16,500.87c-16.02-15.73-31.84-31.91-47.47-48.52h-1.17c1.69,17.33,2.54,35.01,2.54,53.05v94.91h-32.04
		V421.95h31.84l102.56,99.44c17.71,17.33,33.54,33.5,47.47,48.52h1.17c-1.69-16.26-2.54-35.24-2.54-56.92V339.04l31.84-40.12v301.38
		h-31.65L382.16,500.87z"/>
</g>
</svg>
